:version 1.10
:name ASF
:units
  mass 1
  length 1
  angle deg
:documentation
  ASF file generated by Kaydara
:root
  axis xyz
  order  tx ty tz rx ry rz
  position 0 0 0
  orientation 0 0 0
:bonedata
  begin
    id 1
    name SpineDummy
    direction 0.999998 -0.00179978 1.38929e-006
    length 3.60008
    axis 0 0 0 xyz
  end
  begin
    id 2
    name Spine
    direction 0.964365 0.262802 0.0305839
    length 8.13928
    axis 1.33928 -1.75354 15.2838 xyz
    dof rx ry rz
  end
  begin
    id 3
    name Spine1
    direction 0.811168 0.572065 0.12144
    length 7.14954
    axis 2.2224 -6.9761 35.2157 xyz
    dof rx ry rz
  end
  begin
    id 4
    name Neck
    direction 0 0 0
    length 0
    axis 2.2224 -6.9761 35.2157 xyz
    dof rx ry rz
  end
  begin
    id 5
    name HeadDummy
    direction 0.810939 0.572387 0.121455
    length 3.55534
    axis 2.2224 -6.9761 35.2157 xyz
  end
  begin
    id 6
    name Head
    direction 0.998226 -0.000232542 0.0595419
    length 7.35666
    axis -3.03688 -3.41352 -0.0133467 xyz
    dof rx ry rz
  end
  begin
    id 7
    name R_ClavicleDummy
    direction 0.531669 -0.194489 -0.824319
    length 2.49392
    axis 2.2224 -6.9761 35.2157 xyz
  end
  begin
    id 8
    name R_Clavicle
    direction -0.155119 0.0480802 -0.986725
    length 4.485
    axis -54.2764 80.6538 162.779 xyz
    dof rx ry rz
  end
  begin
    id 9
    name R_UpperArm
    direction -0.955567 0.200068 -0.216484
    length 10.1122
    axis -72.9943 12.5026 168.175 xyz
    dof rx ry rz
  end
  begin
    id 10
    name R_Forearm
    direction -0.61433 0.385743 0.688332
    length 9.39148
    axis -117.015 -43.4982 147.875 xyz
    dof rx ry rz
  end
  begin
    id 11
    name R_Hand
    direction -0.699429 0.0170333 0.714499
    length 3.66324
    axis -45.0303 -36.7097 175.478 xyz
    dof rx ry rz
  end
  begin
    id 12
    name L_ClavicleDummy
    direction 0.40287 -0.36502 0.839319
    length 2.49392
    axis 2.2224 -6.9761 35.2157 xyz
  end
  begin
    id 13
    name L_Clavicle
    direction -0.231271 -0.0726419 0.970174
    length 4.485
    axis 18.4357 -75.9711 -162.563 xyz
    dof rx ry rz
  end
  begin
    id 14
    name L_UpperArm
    direction -0.917494 0.144359 0.370629
    length 10.1122
    axis 56.0417 -21.7544 171.058 xyz
    dof rx ry rz
  end
  begin
    id 15
    name L_Forearm
    direction -0.496786 0.615074 -0.612281
    length 9.39148
    axis 89.8094 37.7546 128.927 xyz
    dof rx ry rz
  end
  begin
    id 16
    name L_Hand
    direction -0.409932 0.64962 -0.640274
    length 3.66324
    axis -0.424369 32.133 128.52 xyz
    dof rx ry rz
  end
  begin
    id 17
    name L_ThighDummy
    direction -1.84081e-006 1.87549e-006 1
    length 3.13049
    axis 0 0 0 xyz
  end
  begin
    id 18
    name L_Thigh
    direction -0.947739 0.307978 0.083308
    length 17.9961
    axis 173.219 -4.77873 161.998 xyz
    dof rx ry rz
  end
  begin
    id 19
    name L_Calf
    direction -0.728814 -0.684427 0.0197583
    length 13.3367
    axis 167.331 -1.13214 -136.799 xyz
    dof rx ry rz
  end
  begin
    id 20
    name L_Foot
    direction -0.9028 0.418719 0.0981191
    length 5.8674
    axis 163.436 11.5135 -155.37 xyz
    dof rx ry rz
  end
  begin
    id 21
    name L_Toe0
    direction -0.35341 0.886259 0.299411
    length 4.75286
    axis 169.316 -17.4222 111.74 xyz
    dof rx ry rz
  end
  begin
    id 22
    name R_ThighDummy
    direction 9.32778e-007 -8.82053e-007 -1
    length 3.13049
    axis 0 0 0 xyz
  end
  begin
    id 23
    name R_Thigh
    direction -0.925064 0.37528 -0.0585023
    length 17.9961
    axis -178.698 3.35385 157.919 xyz
    dof rx ry rz
  end
  begin
    id 24
    name R_Calf
    direction -0.68969 -0.718776 -0.0876886
    length 13.3367
    axis -160.504 5.03065 -133.817 xyz
    dof rx ry rz
  end
  begin
    id 25
    name R_Foot
    direction -0.857405 0.418858 -0.299022
    length 5.8674
    axis -161.328 4.38911 -154.413 xyz
    dof rx ry rz
  end
  begin
    id 26
    name R_Toe0
    direction -0.100745 0.952789 -0.286433
    length 4.75286
    axis 171.683 16.6445 96.0359 xyz
    dof rx ry rz
  end
:hierarchy
  begin
    root SpineDummy L_ThighDummy R_ThighDummy
    SpineDummy Spine
    Spine Spine1
    Spine1 Neck
    Neck HeadDummy R_ClavicleDummy L_ClavicleDummy
    HeadDummy Head
    R_ClavicleDummy R_Clavicle
    R_Clavicle R_UpperArm
    R_UpperArm R_Forearm
    R_Forearm R_Hand
    L_ClavicleDummy L_Clavicle
    L_Clavicle L_UpperArm
    L_UpperArm L_Forearm
    L_Forearm L_Hand
    L_ThighDummy L_Thigh
    L_Thigh L_Calf
    L_Calf L_Foot
    L_Foot L_Toe0
    R_ThighDummy R_Thigh
    R_Thigh R_Calf
    R_Calf R_Foot
    R_Foot R_Toe0
  end

:SAMPLES-PER-SECOND 30
:FULLY-SPECIFIED
:DEGREES
179
root  -10.4518 18.3832 -13.2922 118.926 -54.1806 98.977
Spine  -11.5853 -8.49002 22.1422
Spine1  -13.2514 26.6023 -11.8096
Neck  3.97569e-016 0 -2.38542e-015
Head  12.7621 -8.75902 11.0604
R_Clavicle  -0.423739 9.50998 -0.923154
R_UpperArm  53.1215 13.0527 -10.5869
R_Forearm  28.8218 -13.2877 11.4618
R_Hand  -36.0203 19.9598 -127.548
L_Clavicle  0.561145 1.14487 -4.52466
L_UpperArm  -44.0017 6.93172 -2.20552
L_Forearm  -90.5793 4.41395 11.974
L_Hand  7.11266 -38.1595 -22.7883
L_Thigh  6.46049 6.44662 15.2962
L_Calf  12.7671 -0.855679 6.28485
L_Foot  -1.31768 -12.4315 20.0836
L_Toe0  -17.7301 4.24426 6.00736
R_Thigh  -12.8238 -22.9286 10.5803
R_Calf  28.3031 -14.2403 -51.9262
R_Foot  1.37826 7.77137 20.5422
R_Toe0  -0.613525 -0.227331 -16.6758
180
root  -10.5698 18.8895 -12.9864 121.798 -56.7373 86.446
Spine  -8.04875 -5.30503 16.2786
Spine1  -8.78292 18.0398 -6.75575
Neck  3.97569e-016 0 -2.38542e-015
Head  12.4532 -8.57096 5.16847
R_Clavicle  -0.917157 8.82668 -2.81766
R_UpperArm  55.6733 12.8396 -9.42719
R_Forearm  34.6591 -10.7893 10.7054
R_Hand  -33.2774 17.9637 -127.059
L_Clavicle  0.0840751 2.39581 -1.26213
L_UpperArm  -46.442 9.05318 -6.1401
L_Forearm  -87.8892 -2.76071 6.13578
L_Hand  9.78193 -38.7802 -30.6537
L_Thigh  15.9416 6.36553 16.9167
L_Calf  1.47506 0.14456 -1.29592
L_Foot  1.5314 -4.59945 15.678
L_Toe0  -14.2842 2.99302 2.37794
R_Thigh  -11.5185 -28.1996 15.359
R_Calf  28.9139 -9.7644 -32.2772
R_Foot  1.14666 6.94725 16.3098
R_Toe0  9.60694 -2.36407 -9.35539
181
root  -10.2478 19.0053 -12.7223 121.82 -54.5519 71.5216
Spine  -2.21382 2.9092 13.1714
Spine1  -3.50273 4.04617 -4.61269
Neck  3.97569e-016 0 -2.38542e-015
Head  10.7183 -7.75381 0.871602
R_Clavicle  -1.43388 6.89405 -5.16171
R_UpperArm  57.9959 10.6944 -6.37978
R_Forearm  42.0945 -7.9888 9.28826
R_Hand  -32.3012 17.8529 -125.515
L_Clavicle  -0.382074 3.56016 2.56262
L_UpperArm  -45.296 10.2489 -9.61967
L_Forearm  -80.981 -7.07115 0.757525
L_Hand  13.1557 -38.1778 -41.4289
L_Thigh  25.7459 5.37615 13.9619
L_Calf  0.582506 2.74325 -20.9559
L_Foot  2.58033 -3.59971 19.3576
L_Toe0  1.79623 -0.227201 -6.90087
R_Thigh  -6.43836 -24.8573 17.6602
R_Calf  20.7248 -4.73245 -14.7821
R_Foot  3.84129 12.3849 17.4208
R_Toe0  21.7814 -7.10555 -1.28372
182
root  -9.88614 18.677 -12.8081 117.445 -48.3528 58.7248
Spine  5.653 13.3458 16.632
Spine1  2.43285 -11.9659 -6.88058
Neck  3.97569e-016 0 -2.38542e-015
Head  7.20956 -7.46847 -1.17823
R_Clavicle  -1.71535 4.76131 -6.88892
R_UpperArm  58.6609 7.78673 -2.4819
R_Forearm  47.0099 -7.45159 8.79359
R_Hand  -36.6367 21.6478 -125.109
L_Clavicle  -0.669325 4.50165 5.36814
L_UpperArm  -41.3423 10.0081 -10.0875
L_Forearm  -77.8551 -6.92357 -1.8997
L_Hand  15.7732 -39.0669 -47.4703
L_Thigh  25.2103 2.55655 8.80357
L_Calf  2.92272 5.52384 -45.1946
L_Foot  5.01692 -0.837598 25.0778
L_Toe0  0.505156 0.034446 -6.1361
R_Thigh  2.38128 -17.3573 16.5251
R_Calf  9.30336 -1.74962 -5.22482
R_Foot  11.2477 26.3013 21.994
R_Toe0  10.9543 -1.80048 -9.32846
183
root  -9.97608 18.1808 -12.7791 109.227 -39.6076 52.1675
Spine  13.543 18.6903 25.0681
Spine1  8.80175 -25.4425 -10.6422
Neck  3.97569e-016 0 -2.38542e-015
Head  4.10012 -8.38274 -2.83998
R_Clavicle  -1.9029 3.59055 -8.08392
R_UpperArm  58.1148 5.42666 0.779735
R_Forearm  43.8148 -8.3648 8.69727
R_Hand  -46.2305 31.0186 -123.347
L_Clavicle  -0.784553 4.88556 6.58209
L_UpperArm  -38.0558 8.16541 -9.33695
L_Forearm  -73.3703 -4.25366 -1.95771
L_Hand  15.2356 -42.9522 -41.3998
L_Thigh  17.5651 -4.60033 4.69751
L_Calf  4.58873 6.92249 -62.3737
L_Foot  5.65307 -1.85485 30.1665
L_Toe0  0.505156 0.034446 -6.1361
R_Thigh  10.8895 -10.9668 10.4746
R_Calf  -5.51131 -0.257951 -0.563268
R_Foot  15.178 32.2106 24.203
R_Toe0  8.26958 -1.20498 -11.5043
184
root  -10.2948 17.611 -12.1847 100.176 -29.2558 48.7014
Spine  19.6101 17.2955 32.6041
Spine1  15.6564 -32.0069 -14.7029
Neck  3.97569e-016 0 -2.38542e-015
Head  2.89132 -9.74012 -4.14031
R_Clavicle  -1.88674 1.3899 -9.02347
R_UpperArm  56.0889 1.4937 7.68841
R_Forearm  40.0007 -6.59873 4.31442
R_Hand  -50.4981 45.6627 -110.606
L_Clavicle  -0.703276 6.28087 6.30616
L_UpperArm  -35.8796 6.53018 -7.61659
L_Forearm  -67.6697 -1.33289 -0.874033
L_Hand  12.8356 -43.6105 -34.4361
L_Thigh  9.32114 -14.0713 6.82884
L_Calf  9.74918 7.16505 -66.6092
L_Foot  5.13815 -3.70113 32.4729
L_Toe0  0.505156 0.034446 -6.1361
R_Thigh  12.8918 -5.80114 -1.96947
R_Calf  -18.6521 1.88732 6.01271
R_Foot  16.5596 33.5725 26.1363
R_Toe0  6.969 -0.96304 -12.0623
